<svg width="356" height="477" viewBox="0 0 356 477" fill="none" xmlns="http://www.w3.org/2000/svg">
<rect x="21.5" y="69.5" width="315" height="315" rx="3.5" stroke="#5C6670"/>
<path d="M137.163 17.216V14.504H131.979V11.048H138.123V8.12H128.427V23H131.979V17.216H137.163ZM151.126 23L151.414 20.072H145.222V8.12H141.67V23H151.126ZM164.441 20.096H158.249V16.808H163.337V14.264H158.249V11.024H164.273V8.12H154.721V23H164.177L164.441 20.096ZM174.733 23.072L178.645 22.928L174.637 15.608L178.669 8.12H174.901L172.597 13.064L170.101 8.048L166.213 8.192L170.221 15.56L166.237 23H169.981L172.285 18.128L174.733 23.072ZM201.387 23.216L205.179 22.784L201.723 16.352C203.091 15.368 204.051 14.144 204.051 12.32C204.051 9.2 201.747 7.232 193.851 8.12V23H197.331V18.2L198.987 18.152L201.387 23.216ZM197.331 10.808C199.491 10.568 200.595 11.36 200.595 13.112C200.595 14.192 200.091 15.104 199.251 15.704L197.331 15.752V10.808ZM211.583 23.384C215.351 23.384 217.751 20.48 217.751 15.032C217.751 10.304 215.855 7.736 212.399 7.736C208.631 7.736 206.231 10.64 206.231 16.088C206.231 20.816 208.127 23.384 211.583 23.384ZM211.871 10.616C213.311 10.616 214.103 12.32 214.103 15.824C214.103 19.064 213.551 20.504 212.111 20.504C210.671 20.504 209.879 18.8 209.879 15.296C209.879 12.056 210.431 10.616 211.871 10.616ZM226.794 23H230.082C230.394 20.192 230.874 14.528 231.186 8.12H227.898L227.706 18.272H227.61C227.058 16.064 226.722 14.816 226.122 12.632H224.37C223.818 14.816 223.578 16.04 223.05 18.272H222.954L222.594 8.12H219.21C219.522 14.528 219.978 20.192 220.29 23H223.482L225.09 16.592L226.794 23Z" fill="white"/>
<rect x="30" y="78" width="58" height="298" rx="3" fill="#2B333B" stroke="#75808A" stroke-width="2"/>
<rect x="98" y="78" width="58" height="298" rx="3" fill="#2B333B" stroke="#75808A" stroke-width="2"/>
<path d="M179 69L179 385" stroke="#60A3F2" stroke-width="3" stroke-linecap="round" stroke-dasharray="0.01 5"/>
<path d="M337 227L23 227" stroke="#0E141B" stroke-width="9" stroke-linecap="round" stroke-linejoin="round"/>
<path d="M338.061 228.061C338.646 227.475 338.646 226.525 338.061 225.939L328.515 216.393C327.929 215.808 326.979 215.808 326.393 216.393C325.808 216.979 325.808 217.929 326.393 218.515L334.879 227L326.393 235.485C325.808 236.071 325.808 237.021 326.393 237.607C326.979 238.192 327.929 238.192 328.515 237.607L338.061 228.061ZM337 225.5L21 225.5L21 228.5L337 228.5L337 225.5Z" fill="#FFD500"/>
<path d="M21.5 212L21.5 244" stroke="#FFD500" stroke-width="3" stroke-linecap="round"/>
<path d="M163.96 58.848V60.084C167.548 60.228 168.832 58.992 168.832 57.816C168.832 56.04 165.364 55.548 165.364 54.432C165.364 53.892 165.964 53.568 168.376 53.736L168.304 52.5C165.208 52.332 163.936 53.508 163.936 54.624C163.936 56.34 167.404 56.772 167.404 57.984C167.404 58.608 166.492 59.04 163.96 58.848ZM173.606 53.712H175.73V52.56H170.126L170.03 53.712H172.214V60H173.606V53.712ZM181.091 60.048L182.483 59.952C181.847 57.48 181.187 55.032 180.455 52.548H178.547C177.803 55.032 177.155 57.528 176.519 60H177.887C178.055 59.316 178.211 58.62 178.379 57.936H180.587C180.755 58.644 180.923 59.352 181.091 60.048ZM179.435 53.676H179.531C179.807 54.744 180.083 55.836 180.347 56.928H178.619C178.883 55.836 179.159 54.756 179.435 53.676ZM187.665 60.108L189.141 59.928L187.389 56.712C188.085 56.208 188.601 55.56 188.601 54.624C188.601 53.076 187.449 52.092 183.765 52.572V60H185.121V57.432L186.297 57.408L187.665 60.108ZM185.121 53.616C186.573 53.424 187.245 53.94 187.245 54.924C187.245 55.572 186.921 56.1 186.429 56.436L185.121 56.472V53.616ZM193.399 53.712H195.523V52.56H189.919L189.823 53.712H192.007V60H193.399V53.712Z" fill="#60A3F2"/>
<path d="M9.536 243.1L11.096 243.1C11.192 239.368 9.932 238.084 8.708 238.084C6.944 238.084 6.464 241.312 5.528 241.312C5.072 241.312 4.892 240.796 5.048 238.564L3.488 238.66C3.332 241.78 4.58 243.16 5.756 243.16C7.46 243.16 7.856 239.932 8.912 239.932C9.44 239.932 9.692 240.76 9.536 243.1ZM5.024 233.202L5.024 231.234L3.56 231.234L3.56 236.898L5.024 237.018L5.024 234.978L11 234.978L11 233.202L5.024 233.202ZM11.06 226.185L10.94 224.397C8.468 224.985 6.032 225.585 3.56 226.281L3.56 228.717C6.032 229.413 8.528 230.013 11 230.601L11 228.837C10.388 228.717 9.776 228.585 9.152 228.453L9.152 226.569C9.8 226.437 10.436 226.305 11.06 226.185ZM4.976 227.565L4.976 227.457C5.924 227.253 6.908 227.037 7.88 226.833L7.88 228.189C6.908 227.985 5.924 227.781 4.976 227.565ZM11.108 219.611L10.892 217.715L7.676 219.443C7.184 218.759 6.572 218.279 5.66 218.279C4.1 218.279 3.116 219.431 3.56 223.379L11 223.379L11 221.639L8.6 221.639L8.576 220.811L11.108 219.611ZM4.904 221.639C4.784 220.559 5.18 220.007 6.056 220.007C6.596 220.007 7.052 220.259 7.352 220.679L7.376 221.639L4.904 221.639ZM5.024 213.409L5.024 211.441L3.56 211.441L3.56 217.105L5.024 217.225L5.024 215.185L11 215.185L11 213.409L5.024 213.409Z" fill="#FFD500"/>
<path d="M351.548 231.98L351.548 235.076L349.904 235.076L349.904 232.532L348.632 232.532L348.632 235.076L347.012 235.076L347.012 232.064L345.56 232.064L345.56 236.84L353 236.84L353 232.112L351.548 231.98ZM353 226.823L353 225.395L345.56 225.395L345.56 227.015L349.7 226.943L349.7 226.991L345.56 229.055L345.56 230.591L353 230.591L353 228.971L348.86 229.043L348.86 228.983L353 226.823ZM349.148 218.509C346.196 218.509 345.056 219.889 345.56 223.921L353 223.921C353.504 220.069 352.016 218.509 349.148 218.509ZM349.376 220.297C351.164 220.297 351.836 220.633 351.62 222.193L346.904 222.193C346.748 220.669 347.648 220.297 349.376 220.297Z" fill="#FFD500"/>
<path d="M173.868 399.848H170.532V397.76H173.328V396.752H170.532V394.712H173.796V393.56H169.152V401H173.76L173.868 399.848ZM179.194 401H180.37V393.56H179.098L179.158 398.468H179.11L176.722 393.56H175.426V401H176.698L176.65 396.032H176.71L179.194 401ZM187.291 397.136C187.291 394.232 185.923 393.056 182.095 393.56V401C185.683 401.504 187.291 400.04 187.291 397.136ZM185.899 397.34C185.899 399.332 185.275 400.184 183.451 399.92V394.616C185.299 394.412 185.899 395.348 185.899 397.34Z" fill="#60A3F2"/>
<line x1="179" y1="384.379" x2="186.879" y2="376.5" stroke="#60A3F2" stroke-width="3" stroke-linecap="round" stroke-dasharray="0.01 5"/>
<line x1="194" y1="69" x2="165" y2="69" stroke="#60A3F2" stroke-width="3" stroke-linecap="round" stroke-dasharray="0.01 5"/>
<line x1="178.879" y1="384.5" x2="171" y2="376.621" stroke="#60A3F2" stroke-width="3" stroke-linecap="round" stroke-dasharray="0.01 5"/>
<line x1="55.5" y1="466.5" x2="302.5" y2="466.5" stroke="#60A3F2" stroke-width="3" stroke-linecap="round" stroke-dasharray="0.01 5"/>
<rect x="118" y="455" width="122" height="22" fill="#0E141B"/>
<path d="M136.73 470.308C132.464 470.524 131.258 469.246 131.258 466.312C131.258 463.882 132.032 462.568 136.622 462.658L136.514 460.678C130.97 460.786 129.116 463.468 129.116 466.582C129.116 469.966 130.79 472.54 136.55 472.072L136.73 470.308ZM145.222 472.162L147.436 471.892L144.808 467.068C145.852 466.312 146.626 465.34 146.626 463.936C146.626 461.614 144.898 460.138 139.372 460.858V472H141.406V468.148L143.17 468.112L145.222 472.162ZM141.406 462.424C143.584 462.136 144.592 462.91 144.592 464.386C144.592 465.358 144.106 466.15 143.368 466.654L141.406 466.708V462.424ZM152.509 472.288C155.245 472.288 156.991 470.11 156.991 466.096C156.973 462.532 155.551 460.552 153.013 460.552C150.277 460.552 148.531 462.73 148.531 466.744C148.531 470.308 149.971 472.288 152.509 472.288ZM152.689 462.262C154.093 462.262 154.849 463.702 154.849 466.564C154.849 469.264 154.201 470.578 152.833 470.578C151.429 470.578 150.673 469.138 150.673 466.276C150.673 463.576 151.321 462.262 152.689 462.262ZM159.147 470.272V472.126C164.529 472.342 166.455 470.488 166.455 468.724C166.455 466.06 161.253 465.322 161.253 463.648C161.253 462.838 162.153 462.352 165.771 462.604L165.663 460.75C161.019 460.498 159.111 462.262 159.111 463.936C159.111 466.51 164.313 467.158 164.313 468.976C164.313 469.912 162.945 470.56 159.147 470.272ZM169.044 470.272V472.126C174.426 472.342 176.352 470.488 176.352 468.724C176.352 466.06 171.15 465.322 171.15 463.648C171.15 462.838 172.05 462.352 175.668 462.604L175.56 460.75C170.916 460.498 169.008 462.262 169.008 463.936C169.008 466.51 174.21 467.158 174.21 468.976C174.21 469.912 172.842 470.56 169.044 470.272ZM194.74 472.072L196.828 471.928C195.874 468.22 194.884 464.548 193.786 460.822H190.924C189.808 464.548 188.836 468.292 187.882 472H189.934C190.186 470.974 190.42 469.93 190.672 468.904H193.984C194.236 469.966 194.488 471.028 194.74 472.072ZM192.256 462.514H192.4C192.814 464.116 193.228 465.754 193.624 467.392H191.032C191.428 465.754 191.842 464.134 192.256 462.514ZM204.439 472.054L206.707 471.946L203.557 466.42L206.725 460.84H204.511L202.351 464.998L200.083 460.786L197.815 460.894L200.965 466.438L197.815 472H200.011L202.171 467.878L204.439 472.054ZM213.183 462.442H215.757V460.84H208.539V462.442H211.113V470.398H208.539V472H215.703L215.847 470.398H213.183V462.442ZM218.526 470.272V472.126C223.908 472.342 225.834 470.488 225.834 468.724C225.834 466.06 220.632 465.322 220.632 463.648C220.632 462.838 221.532 462.352 225.15 462.604L225.042 460.75C220.398 460.498 218.49 462.262 218.49 463.936C218.49 466.51 223.692 467.158 223.692 468.976C223.692 469.912 222.324 470.56 218.526 470.272Z" fill="#60A3F2"/>
<line x1="55.5" y1="436.5" x2="302.5" y2="436.5" stroke="#FFD500" stroke-width="3" stroke-linecap="round"/>
<rect x="103" y="425" width="150" height="22" fill="#0E141B"/>
<path d="M121.978 442V438.922C125.074 438.472 127.324 437.14 127.324 434.386C127.324 431.452 124.786 430.174 119.35 430.84V442H121.978ZM124.75 434.926C124.75 436.582 123.832 437.05 121.978 436.78V432.874C123.814 432.712 124.75 433.396 124.75 434.926ZM134.79 442.162L137.634 441.838L135.042 437.014C136.068 436.276 136.788 435.358 136.788 433.99C136.788 431.65 135.06 430.174 129.138 430.84V442H131.748V438.4L132.99 438.364L134.79 442.162ZM131.748 432.856C133.368 432.676 134.196 433.27 134.196 434.584C134.196 435.394 133.818 436.078 133.188 436.528L131.748 436.564V432.856ZM144.093 432.874H146.469V430.84H139.071V432.874H141.447V439.966H139.071V442H146.397L146.577 439.966H144.093V432.874ZM154.331 430.84L152.693 436.672H152.621L150.965 430.84H148.625V442H150.965L150.821 435.772H150.893L151.955 439.516H153.233L154.295 435.772H154.367L154.223 442H156.653V430.84H154.331ZM164.516 442.09L167.198 441.91C166.316 438.202 165.416 434.548 164.372 430.84H160.718C159.674 434.548 158.774 438.292 157.892 442H160.538C160.718 441.082 160.916 440.164 161.114 439.228H163.94C164.138 440.2 164.336 441.154 164.516 442.09ZM162.446 432.964H162.608C162.914 434.386 163.238 435.862 163.544 437.32H161.51C161.816 435.862 162.122 434.386 162.446 432.964ZM174.376 442.162L177.22 441.838L174.628 437.014C175.654 436.276 176.374 435.358 176.374 433.99C176.374 431.65 174.646 430.174 168.724 430.84V442H171.334V438.4L172.576 438.364L174.376 442.162ZM171.334 432.856C172.954 432.676 173.782 433.27 173.782 434.584C173.782 435.394 173.404 436.078 172.774 436.528L171.334 436.564V432.856ZM183.679 442V438.274L187.153 430.84H184.435L182.419 435.808L180.295 430.786L177.505 430.894L181.015 438.328V442H183.679ZM204.102 442.09L206.784 441.91C205.902 438.202 205.002 434.548 203.958 430.84H200.304C199.26 434.548 198.36 438.292 197.478 442H200.124C200.304 441.082 200.502 440.164 200.7 439.228H203.526C203.724 440.2 203.922 441.154 204.102 442.09ZM202.032 432.964H202.194C202.5 434.386 202.824 435.862 203.13 437.32H201.096C201.402 435.862 201.708 434.386 202.032 432.964ZM213.764 442.054L216.698 441.946L213.692 436.456L216.716 430.84H213.89L212.162 434.548L210.29 430.786L207.374 430.894L210.38 436.42L207.392 442H210.2L211.928 438.346L213.764 442.054ZM223.265 432.874H225.641V430.84H218.243V432.874H220.619V439.966H218.243V442H225.569L225.749 439.966H223.265V432.874ZM228.211 439.804V442.144C233.809 442.288 235.735 440.398 235.735 438.562C235.735 435.916 230.893 435.196 230.893 433.792C230.893 433.108 231.667 432.838 235.015 433.072L234.871 430.732C230.191 430.498 228.121 432.37 228.121 434.134C228.121 436.69 232.963 437.284 232.963 438.868C232.963 439.66 231.721 440.038 228.211 439.804Z" fill="#FFD500"/>
</svg>
